<?xml version="1.0" encoding="UTF-8" standalone="no"?>
<svg
   xmlns:dc="http://purl.org/dc/elements/1.1/"
   xmlns:cc="http://creativecommons.org/ns#"
   xmlns:rdf="http://www.w3.org/1999/02/22-rdf-syntax-ns#"
   xmlns:svg="http://www.w3.org/2000/svg"
   xmlns="http://www.w3.org/2000/svg"
   id="svg3779"
   version="1.1"
   width="1024"
   height="1024">
  <metadata
     id="metadata3785">
    <rdf:RDF>
      <cc:Work
         rdf:about="">
        <dc:format>image/svg+xml</dc:format>
        <dc:type
           rdf:resource="http://purl.org/dc/dcmitype/StillImage" />
        <dc:title></dc:title>
      </cc:Work>
    </rdf:RDF>
  </metadata>
  <defs
     id="defs3783" />
  <path
     style="fill:#4e6e5d;fill-opacity:1"
     id="path3777"
     d="M 950.154,384 H 73.846 C 33.127,384 0,417.127 0,457.846 V 950.154 C 0,990.875 33.127,1024 73.846,1024 H 950.154 C 990.875,1024 1024,990.875 1024,950.154 V 457.846 C 1024,417.127 990.875,384 950.154,384 Z M 576,895.875 448,896 V 704 L 352,827.077 256,704 V 896 H 128 V 512 h 128 l 96,128 96,-128 128,-0.125 z m 191.091,32 L 608,704 h 96 V 512 h 128 v 192 h 96 z" />
</svg>
